<svg xmlns="http://www.w3.org/2000/svg" width="1140" height="664" viewBox="0 0 1140 664" font-family="-apple-system, BlinkMacSystemFont, 'Segoe UI', 'Apple SD Gothic Neo', 'Malgun Gothic', 'Noto Sans KR', 'Noto Sans CJK KR', Helvetica, Arial, sans-serif" role="img" aria-labelledby="t d">
<title id="t">AI 앱 배포 아키텍처</title>
<desc id="d">AI 플레이그라운드(PAIF/PAIS) 안의 VKS Cluster(프로젝트)에 앱을 배포한다. 외부 사용자의 HTTPS 요청은 Ingress Controller(L7 로드밸런싱, TLS 종료)를 거쳐 Frontend Pod(React, Nginx)로, 다시 Backend Pod(FastAPI, 인증 처리, AI API 중계)로 전달되고, Backend Pod가 PAIS Services(Agent API, Model Endpoints, Knowledge Base)를 호출한다. 공유 서비스로 Harbor가 컨테이너 이미지를, DSM PostgreSQL이 앱 데이터와 사용자 정보를 보관한다.</desc>
<defs><marker id="ah" viewBox="0 0 10 10" refX="10" refY="5" markerUnits="userSpaceOnUse" markerWidth="10" markerHeight="10" orient="auto-start-reverse"><path d="M0,0 L10,5 L0,10 z" fill="#59636e"/></marker></defs>
<rect x="299" y="24" width="190" height="44" rx="8" fill="#f6f8fa" stroke="#d0d7de" stroke-width="1.5"/>
<text x="394" y="51.04" font-size="15" font-weight="700" text-anchor="middle" fill="#1f2328">외부 사용자</text>
<path d="M394,68 L394,180" fill="none" stroke="#59636e" stroke-width="1.5" marker-end="url(#ah)"/>
<text x="404" y="92" font-size="12" fill="#59636e" stroke="#ffffff" stroke-width="4" stroke-linejoin="round" paint-order="stroke">HTTPS</text>
<rect x="24" y="108" width="740" height="500" rx="10" fill="none" stroke="#afb8c1" stroke-width="1.5"/>
<text x="38" y="130" font-size="13" font-weight="700" fill="#59636e">AI 플레이그라운드 (PAIF/PAIS)</text>
<rect x="48" y="144" width="692" height="268" rx="10" fill="none" stroke="#afb8c1" stroke-width="1.5"/>
<text x="62" y="166" font-size="13" font-weight="700" fill="#59636e">VKS Cluster (프로젝트)</text>
<rect x="72" y="180" width="644" height="56" rx="8" fill="#ddf4ff" stroke="#54aeff" stroke-width="1.5"/>
<text x="394" y="204.04" font-size="15" font-weight="700" text-anchor="middle" fill="#1f2328">Ingress Controller</text>
<text x="394" y="222.82" font-size="13" text-anchor="middle" fill="#59636e">L7 로드밸런싱, TLS 종료</text>
<rect x="72" y="280" width="280" height="108" rx="8" fill="#ddf4ff" stroke="#54aeff" stroke-width="1.5"/>
<text x="212" y="330.04" font-size="15" font-weight="700" text-anchor="middle" fill="#1f2328">Frontend Pod(s)</text>
<text x="212" y="348.82" font-size="13" text-anchor="middle" fill="#1f2328">React, Nginx</text>
<rect x="436" y="280" width="280" height="108" rx="8" fill="#ddf4ff" stroke="#54aeff" stroke-width="1.5"/>
<text x="576" y="321.04" font-size="15" font-weight="700" text-anchor="middle" fill="#1f2328">Backend Pod(s)</text>
<text x="576" y="339.82" font-size="13" text-anchor="middle" fill="#1f2328">FastAPI</text>
<text x="576" y="357.82" font-size="13" text-anchor="middle" fill="#1f2328">인증 처리, AI API 중계</text>
<path d="M212,236 L212,280" fill="none" stroke="#59636e" stroke-width="1.5" marker-end="url(#ah)"/>
<path d="M352,334 L436,334" fill="none" stroke="#59636e" stroke-width="1.5" marker-end="url(#ah)"/>
<rect x="48" y="460" width="692" height="124" rx="10" fill="none" stroke="#afb8c1" stroke-width="1.5"/>
<text x="62" y="482" font-size="13" font-weight="700" fill="#59636e">PAIS Services</text>
<rect x="72" y="500" width="196" height="60" rx="8" fill="#ddf4ff" stroke="#54aeff" stroke-width="1.5"/>
<text x="170" y="535.04" font-size="15" font-weight="700" text-anchor="middle" fill="#1f2328">Agent API</text>
<rect x="296" y="500" width="196" height="60" rx="8" fill="#fff1e5" stroke="#fb8f44" stroke-width="1.5"/>
<text x="394" y="535.04" font-size="15" font-weight="700" text-anchor="middle" fill="#1f2328">Model Endpoints</text>
<rect x="520" y="500" width="196" height="60" rx="8" fill="#dafbe1" stroke="#4ac26b" stroke-width="1.5"/>
<text x="618" y="535.04" font-size="15" font-weight="700" text-anchor="middle" fill="#1f2328">Knowledge Base</text>
<path d="M576,388 L576,460" fill="none" stroke="#59636e" stroke-width="1.5" marker-end="url(#ah)"/>
<text x="586" y="440" font-size="12" fill="#59636e" stroke="#ffffff" stroke-width="4" stroke-linejoin="round" paint-order="stroke">PAIS API 호출</text>
<rect x="840" y="108" width="276" height="500" rx="10" fill="none" stroke="#afb8c1" stroke-width="1.5"/>
<text x="854" y="130" font-size="13" font-weight="700" fill="#59636e">공유 서비스</text>
<rect x="864" y="140" width="228" height="72" rx="8" fill="#f6f8fa" stroke="#d0d7de" stroke-width="1.5"/>
<text x="978" y="172.04" font-size="15" font-weight="700" text-anchor="middle" fill="#1f2328">Harbor</text>
<text x="978" y="190.82" font-size="13" text-anchor="middle" fill="#59636e">컨테이너 이미지 저장소</text>
<path d="M864,282 A114,8 0 0 1 1092,282 V386 A114,8 0 0 1 864,386 Z" fill="#dafbe1" stroke="#4ac26b" stroke-width="1.5"/>
<path d="M864,282 A114,8 0 0 0 1092,282" fill="none" stroke="#4ac26b" stroke-width="1.5"/>
<text x="978" y="329.04" font-size="15" font-weight="700" text-anchor="middle" fill="#1f2328">DSM</text>
<text x="978" y="347.82" font-size="13" text-anchor="middle" fill="#59636e">PostgreSQL</text>
<text x="978" y="365.82" font-size="13" text-anchor="middle" fill="#59636e">앱 데이터, 사용자 정보</text>
<path d="M864,162 L740,162" fill="none" stroke="#59636e" stroke-width="1.5" stroke-dasharray="5 4" marker-end="url(#ah)"/>
<text x="802" y="154" font-size="12" text-anchor="middle" fill="#59636e" stroke="#ffffff" stroke-width="4" stroke-linejoin="round" paint-order="stroke">앱 이미지</text>
<path d="M716,334 L864,334" fill="none" stroke="#59636e" stroke-width="1.5" stroke-dasharray="5 4" marker-end="url(#ah)"/>
<text x="802" y="326" font-size="12" text-anchor="middle" fill="#59636e" stroke="#ffffff" stroke-width="4" stroke-linejoin="round" paint-order="stroke">앱 데이터</text>
<rect x="40" y="632" width="18" height="14" rx="3" fill="#ddf4ff" stroke="#54aeff" stroke-width="1.5"/>
<text x="66" y="644" font-size="12" fill="#59636e">앱, API 계층</text>
<rect x="169.2" y="632" width="18" height="14" rx="3" fill="#dafbe1" stroke="#4ac26b" stroke-width="1.5"/>
<text x="195.2" y="644" font-size="12" fill="#59636e">데이터 계층</text>
<rect x="286.4" y="632" width="18" height="14" rx="3" fill="#fff1e5" stroke="#fb8f44" stroke-width="1.5"/>
<text x="312.4" y="644" font-size="12" fill="#59636e">모델 추론</text>
<path d="M391.6,639 L409.6,639" fill="none" stroke="#59636e" stroke-width="1.5" stroke-dasharray="5 4" marker-end="url(#ah)"/>
<text x="417.6" y="644" font-size="12" fill="#59636e">공유 서비스 사용</text>
</svg>
